<svg width="6329" height="3188" viewBox="0 0 6329 3188" fill="none" xmlns="http://www.w3.org/2000/svg">
<path d="M83.8867 30.5869C314.322 190.312 514.046 390.305 673.463 620.953C1048.54 1168.82 962.072 1575.1 1194.39 1656.71C1553.38 1782.8 1859.88 847.375 2641.02 753.38C3213.94 684.366 3761.08 1102.05 3887.72 1198.82C4381.79 1575.92 4423.01 1956.55 4794.38 1993.87C5066.02 2021.46 5160.93 1829.73 5592.74 1777.28C5893.36 1740.78 6150.01 1796.86 6321.81 1850.83" stroke="black" stroke-width="5" stroke-miterlimit="10"/>
<path d="M80.8301 75.4854C311.284 235.259 511.037 435.281 670.503 665.947C1045.58 1213.91 959.112 1620.09 1191.33 1701.71C1550.42 1827.79 1856.92 892.369 2637.96 798.375C3210.98 729.457 3758.13 1147.14 3884.76 1243.81C4378.83 1620.92 4419.95 2001.54 4791.42 2038.86C5063.06 2066.46 5157.88 1874.72 5589.78 1822.28C5890.49 1785.77 6147.05 1841.85 6318.85 1895.83" stroke="black" stroke-width="5" stroke-miterlimit="10"/>
<path d="M77.7715 120.383C308.249 280.128 508.008 480.154 667.445 710.845C1042.52 1258.8 956.053 1664.99 1188.37 1746.61C1547.07 1872.69 1853.96 937.267 2635 843.272C3207.93 774.355 3755.07 1192.04 3881.7 1288.71C4375.77 1665.91 4416.99 2046.44 4788.36 2083.76C5060 2111.35 5154.91 1919.52 5586.73 1867.08C5887.43 1830.58 6143.99 1886.65 6315.79 1940.63" stroke="black" stroke-width="5" stroke-miterlimit="10"/>
<path d="M74.9023 165.281C305.33 325.093 505.051 525.146 664.48 755.84C1039.55 1303.8 953.088 1709.98 1185.31 1791.6C1544.39 1917.69 1850.9 982.261 2631.94 888.267C3204.96 819.349 3752.1 1237.04 3878.74 1333.7C4372.81 1710.91 4413.93 2091.44 4785.4 2128.76C5057.04 2156.35 5151.85 1964.52 5583.76 1912.07C5884.47 1875.57 6141.03 1931.65 6312.82 1985.62" stroke="black" stroke-width="5" stroke-miterlimit="10"/>
<path d="M71.7461 210.178C302.2 369.952 501.953 569.973 661.419 800.64C1036.59 1348.6 950.028 1754.88 1182.34 1836.4C1541.33 1962.49 1847.93 1027.06 2628.97 933.067C3202 864.149 3749.04 1281.84 3875.77 1378.51C4369.75 1755.71 4410.96 2136.24 4782.34 2173.56C5053.98 2201.15 5148.89 2009.32 5580.7 1956.87C5881.41 1920.37 6137.97 1976.54 6309.76 2030.42" stroke="black" stroke-width="5" stroke-miterlimit="10"/>
<path d="M68.7891 255.076C299.221 414.876 498.971 614.893 658.462 845.538C1033.54 1393.5 947.071 1799.78 1179.29 1881.3C1538.09 2007.39 1844.88 1071.96 2626.01 977.58C3198.94 908.662 3746.08 1326.35 3872.72 1423.02C4366.79 1800.22 4407.91 2180.75 4779.38 2218.07C5051.02 2245.66 5145.83 2053.83 5577.74 2001.39C5878.45 1964.88 6135.01 2021.06 6306.9 2074.94" stroke="black" stroke-width="5" stroke-miterlimit="10"/>
<path d="M65.9141 300.069C296.34 459.889 496.034 659.981 655.396 890.725C1030.57 1438.68 944.005 1844.96 1176.32 1926.49C1535.31 2052.67 1841.91 1117.24 2622.95 1023.25C3195.97 954.233 3743.02 1371.92 3869.75 1468.59C4363.72 1845.79 4404.94 2226.32 4776.31 2263.64C5047.95 2291.23 5142.87 2099.4 5574.68 2046.96C5875.39 2010.55 6131.95 2066.63 6303.74 2120.51" stroke="black" stroke-width="5" stroke-miterlimit="10"/>
<path d="M62.7617 344.572C293.24 504.317 492.998 704.343 652.435 935.034C1027.51 1482.9 941.043 1889.18 1173.26 1970.8C1532.35 2096.88 1838.85 1161.46 2619.99 1067.46C3192.92 998.448 3740.06 1416.13 3866.69 1512.9C4360.76 1890 4401.88 2270.53 4773.35 2307.95C5044.99 2335.54 5139.9 2143.71 5571.72 2091.36C5872.33 2054.86 6128.89 2110.94 6300.78 2164.91" stroke="black" stroke-width="5" stroke-miterlimit="10"/>
<path d="M59.7012 389.847C290.188 549.614 489.975 749.635 649.471 980.309C1024.55 1528.17 937.983 1934.45 1170.3 2016.07C1529.09 2142.16 1835.89 1206.73 2616.93 1112.45C3189.95 1043.43 3736.99 1461.12 3863.73 1557.89C4357.7 1934.99 4398.92 2315.62 4770.29 2352.94C5041.93 2380.53 5136.84 2188.79 5568.65 2136.35C5869.36 2099.85 6125.92 2155.92 6297.72 2209.9" stroke="black" stroke-width="5" stroke-miterlimit="10"/>
<path d="M56.9316 434.744C287.351 594.651 487.041 794.804 646.414 1025.59C1021.49 1573.55 935.023 1979.74 1167.34 2061.35C1526.33 2187.44 1832.83 1252.01 2613.97 1158.02C3186.9 1089.01 3734.04 1506.69 3860.67 1603.46C4354.74 1980.56 4395.86 2361.19 4767.33 2398.51C5038.97 2426.1 5133.88 2234.37 5565.7 2181.92C5866.31 2145.42 6122.87 2201.5 6294.76 2255.47" stroke="black" stroke-width="5" stroke-miterlimit="10"/>
<path d="M53.7793 479.456C284.211 639.256 483.961 839.272 643.452 1069.92C1018.53 1617.88 932.061 2024.06 1164.28 2105.68C1523.27 2231.76 1829.87 1296.34 2610.91 1202.34C3183.93 1133.43 3730.98 1551.11 3857.71 1647.78C4351.68 2024.89 4392.9 2405.51 4764.37 2442.83C5035.91 2470.43 5130.83 2278.69 5562.73 2226.25C5863.44 2189.74 6120 2245.82 6291.8 2299.8" stroke="black" stroke-width="5" stroke-miterlimit="10"/>
<path d="M50.7129 524.542C281.166 684.316 480.92 884.337 640.386 1115C1015.46 1662.96 928.995 2069.15 1161.31 2150.76C1520.3 2276.85 1826.81 1341.43 2607.94 1247.43C3180.87 1178.51 3728.01 1596.2 3854.64 1692.87C4348.71 2070.07 4389.83 2450.6 4761.3 2487.92C5032.94 2515.51 5127.85 2323.68 5559.67 2271.24C5860.28 2234.73 6116.84 2290.81 6288.73 2344.79" stroke="black" stroke-width="5" stroke-miterlimit="10"/>
<path d="M47.9473 569.438C278.357 729.264 478.103 929.277 637.621 1159.9C1012.7 1707.86 926.229 2114.04 1158.45 2195.66C1517.24 2321.65 1824.04 1385.94 2604.89 1292.33C3177.91 1223.41 3724.95 1641.1 3851.68 1737.77C4345.66 2114.97 4386.88 2495.5 4758.35 2532.82C5029.89 2560.41 5124.8 2368.58 5556.71 2316.13C5857.42 2279.63 6113.98 2335.8 6285.77 2389.69" stroke="black" stroke-width="5" stroke-miterlimit="10"/>
<path d="M44.6934 614.338C275.147 774.112 474.901 974.133 634.367 1204.8C1009.44 1752.76 922.976 2159.04 1155.29 2240.56C1514.28 2366.65 1820.79 1431.22 2601.92 1337.23C3174.85 1268.31 3721.99 1686 3848.53 1782.67C4342.6 2159.87 4383.72 2540.4 4755.19 2577.72C5026.83 2605.31 5121.74 2413.48 5553.55 2361.03C5854.16 2324.53 6110.72 2380.7 6282.61 2434.58" stroke="black" stroke-width="5" stroke-miterlimit="10"/>
<path d="M41.7285 659.236C272.16 819.036 471.91 1019.05 631.402 1249.7C1006.48 1797.66 920.011 2203.94 1152.23 2285.46C1511.12 2411.55 1817.82 1476.12 2598.86 1382.22C3171.88 1313.3 3718.93 1730.99 3845.66 1827.66C4339.63 2204.86 4380.85 2585.39 4752.32 2622.71C5023.86 2650.3 5118.77 2458.47 5550.68 2406.03C5851.39 2369.62 6107.95 2425.7 6279.75 2479.58" stroke="black" stroke-width="5" stroke-miterlimit="10"/>
<path d="M38.9629 704.227C269.461 863.947 469.224 1063.98 628.636 1294.69C1003.71 1842.55 917.245 2248.83 1149.56 2330.35C1508.26 2456.54 1815.05 1520.82 2595.9 1427.12C3168.83 1358.1 3715.97 1775.79 3842.6 1872.46C4336.67 2249.66 4377.8 2630.19 4749.26 2667.51C5020.9 2695.1 5115.82 2503.27 5547.63 2450.83C5848.24 2414.42 6104.8 2470.5 6276.69 2524.38" stroke="black" stroke-width="5" stroke-miterlimit="10"/>
<path d="M35.709 749.22C266.187 908.965 465.946 1108.99 625.382 1339.68C1000.46 1887.54 913.991 2293.82 1146.21 2375.44C1505.2 2501.53 1811.8 1566.1 2592.84 1472.11C3165.86 1403.09 3712.91 1820.78 3839.64 1917.55C4333.61 2294.65 4374.83 2675.28 4746.3 2712.6C5017.94 2740.19 5112.76 2548.46 5544.66 2496.01C5845.37 2459.51 6101.93 2515.58 6273.72 2569.56" stroke="black" stroke-width="5" stroke-miterlimit="10"/>
<path d="M32.6465 794.024C263.124 953.769 462.883 1153.8 622.32 1384.49C997.394 1932.35 910.928 2338.63 1143.24 2420.25C1502.14 2546.33 1808.74 1610.91 2589.87 1517.11C3162.8 1448.09 3709.94 1865.78 3836.58 1962.54C4330.65 2339.65 4371.77 2720.28 4743.24 2757.6C5014.88 2785.19 5109.79 2593.45 5541.6 2541.01C5842.21 2504.51 6098.77 2560.58 6270.66 2614.56" stroke="black" stroke-width="5" stroke-miterlimit="10"/>
<path d="M29.9746 838.921C260.428 998.695 460.182 1198.72 619.648 1429.38C994.723 1977.34 908.256 2383.53 1140.48 2465.14C1499.18 2591.42 1806.07 1655.71 2586.82 1561.81C3159.84 1492.89 3706.98 1910.58 3833.62 2007.25C4327.59 2384.35 4368.81 2764.98 4740.28 2802.3C5011.92 2829.89 5106.73 2638.16 5538.64 2585.71C5839.35 2549.21 6095.91 2605.29 6267.7 2659.26" stroke="black" stroke-width="5" stroke-miterlimit="10"/>
<path d="M26.6328 884.103C257.111 1043.85 456.869 1243.87 616.306 1474.56C991.381 2022.52 904.914 2428.71 1137.23 2510.33C1496.22 2636.41 1802.73 1700.99 2583.86 1606.99C3156.79 1537.79 3703.93 1955.47 3830.56 2052.14C4324.63 2429.34 4365.75 2809.87 4737.22 2847.19C5008.86 2874.78 5103.77 2682.95 5535.58 2630.51C5836.2 2594.01 6092.76 2650.08 6264.65 2704.06" stroke="black" stroke-width="5" stroke-miterlimit="10"/>
<path d="M23.6641 928.717C254.118 1088.49 453.871 1288.51 613.337 1519.18C988.412 2067.14 901.946 2473.32 1134.16 2554.94C1493.15 2681.03 1799.76 1745.6 2580.8 1651.99C3153.82 1583.07 3700.96 2000.76 3827.6 2097.43C4321.57 2474.63 4362.79 2855.16 4734.26 2892.48C5005.9 2920.07 5100.71 2728.24 5532.62 2675.8C5833.33 2639.3 6089.89 2695.37 6261.68 2749.35" stroke="black" stroke-width="5" stroke-miterlimit="10"/>
<path d="M20.9902 973.614C251.444 1133.39 451.198 1333.41 610.664 1564.08C985.739 2112.03 899.273 2518.32 1131.59 2599.84C1490.19 2726.31 1797.08 1790.59 2577.83 1696.5C3150.76 1627.59 3697.9 2045.27 3824.54 2141.94C4318.61 2519.14 4359.73 2899.67 4731.2 2936.99C5002.84 2964.59 5097.75 2772.75 5529.56 2720.31C5830.17 2683.81 6086.83 2739.98 6258.62 2793.86" stroke="black" stroke-width="5" stroke-miterlimit="10"/>
<path d="M17.6504 1018.99C248.082 1178.79 447.832 1378.8 607.324 1609.45C982.398 2157.41 895.933 2563.69 1128.15 2645.21C1487.14 2771.29 1793.74 1835.87 2574.78 1741.87C3147.8 1672.48 3694.94 2090.16 3821.58 2186.83C4315.65 2564.03 4356.77 2944.56 4728.24 2981.88C4999.88 3009.47 5094.69 2817.64 5526.6 2765.2C5827.31 2728.7 6083.87 2784.87 6255.66 2838.75" stroke="black" stroke-width="5" stroke-miterlimit="10"/>
<path d="M14.5859 1063.51C245.055 1223.22 444.813 1423.21 604.259 1653.87C979.334 2201.83 892.868 2608.11 1125.18 2689.63C1484.17 2815.81 1790.68 1880.39 2571.81 1786.3C3144.74 1717.38 3691.88 2135.07 3818.52 2231.74C4312.58 2608.94 4353.8 2989.47 4725.18 3026.79C4996.82 3054.38 5091.73 2862.55 5523.54 2810.1C5824.15 2773.7 6080.81 2829.77 6252.6 2883.66" stroke="black" stroke-width="5" stroke-miterlimit="10"/>
<path d="M12.0078 1108.38C242.486 1268.13 442.245 1468.16 601.681 1698.85C976.756 2246.71 890.29 2652.99 1122.51 2734.61C1481.21 2861.18 1788.1 1925.46 2568.75 1831.28C3141.78 1762.26 3688.92 2179.95 3815.55 2276.71C4309.62 2653.82 4350.74 3034.35 4722.21 3071.77C4993.85 3099.36 5088.67 2907.53 5520.58 2855.18C5821.29 2818.68 6077.85 2874.75 6249.64 2928.73" stroke="black" stroke-width="5" stroke-miterlimit="10"/>
<path d="M8.56445 1153.28C239.042 1313.03 438.801 1513.06 598.238 1743.75C973.312 2291.61 886.846 2697.89 1119.16 2779.51C1478.15 2905.59 1784.75 1970.17 2565.79 1876.17C3138.72 1807.16 3685.86 2224.56 3812.59 2321.61C4306.56 2698.72 4347.78 3079.34 4719.15 3116.66C4990.8 3144.25 5085.71 2952.52 5517.52 2900.08C5818.23 2863.57 6074.79 2919.65 6246.58 2973.63" stroke="black" stroke-width="5" stroke-miterlimit="10"/>
<path d="M5.60156 1198.18C236.055 1357.96 435.809 1557.98 595.275 1788.64C970.35 2336.6 883.883 2742.79 1116.1 2824.41C1475.19 2950.49 1781.69 2015.07 2562.73 1921.07C3135.76 1852.06 3682.9 2269.74 3809.53 2366.51C4303.6 2743.61 4344.72 3124.24 4716.19 3161.56C4987.83 3189.15 5082.65 2997.42 5514.56 2944.97C5815.26 2908.47 6071.82 2964.55 6243.62 3018.52" stroke="black" stroke-width="5" stroke-miterlimit="10"/>
</svg>
